<?xml version="1.0" standalone="no"?>
<!DOCTYPE svg PUBLIC "-//W3C//DTD SVG 20010904//EN"
 "http://www.w3.org/TR/2001/REC-SVG-20010904/DTD/svg10.dtd">
<svg version="1.0" xmlns="http://www.w3.org/2000/svg"
 width="512.000000pt" height="512.000000pt" viewBox="0 0 512.000000 512.000000"
 preserveAspectRatio="xMidYMid meet">
<metadata>
Created by potrace 1.11, written by Peter Selinger 2001-2013
</metadata>
<g transform="translate(0.000000,512.000000) scale(0.100000,-0.100000)"
fill="#000000" stroke="none">
<path d="M1367 4594 c-1 -1 -33 -4 -72 -8 -93 -9 -258 -65 -344 -118 -85 -52
-175 -127 -222 -186 -19 -24 -44 -56 -57 -70 -54 -65 -128 -245 -150 -367 -9
-50 -9 -2579 0 -2620 49 -227 120 -361 267 -503 121 -118 263 -192 461 -239
14 -4 541 -8 1171 -10 l1145 -4 30 29 c36 35 758 772 920 939 l119 123 -1
1112 c-1 612 -4 1129 -8 1148 -3 19 -9 49 -12 65 -17 88 -72 220 -130 307
-130 195 -332 332 -564 384 -68 15 -194 17 -1313 18 -681 1 -1239 1 -1240 0z"/>
</g>
</svg>
